<svg xmlns="http://www.w3.org/2000/svg" viewBox="0 0 120.17 118.94"><defs><style>.cls-1{isolation:isolate;}.cls-12,.cls-2{fill:#fff;}.cls-3{fill:#26429b;}.cls-19,.cls-4{fill:#593514;}.cls-11,.cls-12,.cls-14,.cls-4,.cls-7,.cls-8{stroke:#000;}.cls-11,.cls-12,.cls-14,.cls-17,.cls-4,.cls-7,.cls-8{stroke-miterlimit:10;}.cls-5{fill:#3bc2fb;}.cls-6{fill:#c6c6c6;}.cls-11,.cls-17,.cls-20,.cls-24,.cls-7{fill:none;}.cls-8{fill:#ffa4c9;stroke-width:0.75px;}.cls-9{fill:#543600;}.cls-10{fill:#af8952;}.cls-11{stroke-width:1.5px;}.cls-13{fill:#e8e900;}.cls-14{fill:#565656;}.cls-15{fill:#727272;}.cls-16{opacity:0.8;}.cls-16,.cls-23,.cls-24{mix-blend-mode:multiply;}.cls-17{stroke:#ff9331;}.cls-18,.cls-23{fill:#ff9331;}.cls-20,.cls-24{stroke:#8e5025;stroke-linecap:round;stroke-linejoin:round;stroke-width:0.5px;}.cls-21{fill:#755623;}.cls-22{fill:#d0c10a;}.cls-23{opacity:0.6;}.cls-24{opacity:0.4;}</style></defs><g class="cls-1"><g id="Layer_2" data-name="Layer 2"><path class="cls-2" d="M27.35,70.31A6.63,6.63,0,0,0,24,66.94c-2.25-.76-4.32-1.32-5.07-.76a1.79,1.79,0,0,0-.75,1.32s-1.88-.75-2.82.19,0,3.75.19,4.31-3.57-.75-4.5.38-.57,3.38,2.81,5.07,8.64,3,8.82,4.69-.18,5.44,1.13,6.19,2.25,0,3.19-1.12,3.38-6,3.57-7.7S29,70.5,27.35,70.31Z" transform="translate(-3.32 -1.29)"/><path d="M19.83,66a15.5,15.5,0,0,1,4.14,1,6.63,6.63,0,0,1,3.38,3.37c1.69.19,3.38,7.51,3.19,9.2s-2.63,6.57-3.57,7.7a3.11,3.11,0,0,1-2.17,1.43,2.06,2.06,0,0,1-1-.31c-1.31-.75-.94-4.5-1.13-6.19s-5.44-3-8.82-4.69S10.08,73.51,11,72.38a2,2,0,0,1,1.56-.47c1,0,2.14.24,2.66.24.21,0,.32,0,.28-.15-.19-.56-1.13-3.38-.19-4.31a1.85,1.85,0,0,1,1.34-.48,4.43,4.43,0,0,1,1.48.29,1.79,1.79,0,0,1,.75-1.32,1.62,1.62,0,0,1,.93-.22m0-1.5A3,3,0,0,0,18,65a3.87,3.87,0,0,0-.75.77,5.28,5.28,0,0,0-.58,0,3.26,3.26,0,0,0-2.4.92c-.79.79-1,2.06-.71,3.83-.32,0-.65,0-1,0h0a3.48,3.48,0,0,0-2.72,1,3.53,3.53,0,0,0-.7,3c.35,1.68,1.77,3.22,4,4.34,1.14.57,2.45,1.08,3.71,1.58,1.44.57,3.8,1.5,4.31,2.07,0,.36,0,.84.05,1.35,0,2.28.09,4.87,1.81,5.85a3.54,3.54,0,0,0,1.76.5,4.44,4.44,0,0,0,3.32-2c1-1.22,3.68-6.4,3.91-8.49a19.37,19.37,0,0,0-1-5.76c-.91-3.08-1.83-4.3-2.65-4.79a7.57,7.57,0,0,0-4-3.62,16.4,16.4,0,0,0-4.61-1.05Z" transform="translate(-3.32 -1.29)"/><path d="M46.12,87.4s-1.32-1.88-2.82-1.51S38.42,91.34,36,98.28s-4.32,13.52-4.5,17.65,3.56,4.88,5.06,3.94a30.11,30.11,0,0,0,7-6.38c1.69-2.44,6.38-9.95,6.38-11.83S51.56,87.77,46.12,87.4Z" transform="translate(-3.32 -1.29)"/><path class="cls-3" d="M91.45,66a2,2,0,0,1,1.31.94c.38.75.66-.47,1.88-.85A11.71,11.71,0,0,1,102.9,68c3.28,2.16-2.63,17.27-2.63,17.27s-2.53-2.16-5-1.88a14.35,14.35,0,0,0-7.89,3.75c-3,2.54-5.82,5.73-7.79,6.2s-4,3-8,7.51S63.2,109,58.41,107.57s-10-4.78-11-5.91-1.22-8.45-.66-9.67-1-5,.47-4.59S91.45,66,91.45,66Z" transform="translate(-3.32 -1.29)"/><path class="cls-4" d="M66.76,88.83A41.09,41.09,0,0,0,76.83,85c5-2.75,16.91-14.07,16.82-17.25a3,3,0,0,0-2.39-3l-23,16.9L47,86.08l-.87,1.32s1.12,3.28,7.22,3.23A70.51,70.51,0,0,0,66.76,88.83Z" transform="translate(-3.32 -1.29)"/><path d="M96.14,65.92a12.75,12.75,0,0,1,6.76,2c3.28,2.16-2.63,17.27-2.63,17.27a8.28,8.28,0,0,0-4.53-1.91l-.44,0a14.35,14.35,0,0,0-7.89,3.75c-3,2.54-5.82,5.73-7.79,6.2s-4,3-8,7.51c-3.36,3.83-7.13,7.06-11.13,7.06a7.39,7.39,0,0,1-2.11-.31c-4.78-1.4-10-4.78-11-5.91s-1.22-8.45-.66-9.67-.88-4.62.28-4.62l.19,0h0C49.47,87.4,91.45,66,91.45,66a2,2,0,0,1,1.31.94c.09.17.17.24.26.24.29,0,.68-.8,1.62-1.09a5.51,5.51,0,0,1,1.5-.17m0-1.5a6.86,6.86,0,0,0-1.94.24,3.6,3.6,0,0,0-1,.5,3.9,3.9,0,0,0-1.42-.63l-.51-.11-.46.24C75.39,72.5,50.3,85,47.27,85.88h-.22a1.86,1.86,0,0,0-1.44.65c-.73.84-.55,2-.36,3.32a8.2,8.2,0,0,1,.14,1.57c-.75,1.78-.49,9.55.89,11.21s6.88,5,11.71,6.39a8.75,8.75,0,0,0,2.53.37c5,0,9.41-4.32,12.25-7.58l1-1.1c3-3.38,4.89-5.61,6.23-5.93,1.76-.42,3.65-2.17,5.83-4.19.84-.78,1.71-1.58,2.58-2.32a12.92,12.92,0,0,1,7.09-3.41l.27,0a6.71,6.71,0,0,1,3.56,1.55l1.6,1.35.77-2a82.07,82.07,0,0,0,2.6-8c1.66-6.32,1.5-9.73-.55-11.08a14.17,14.17,0,0,0-7.58-2.29Z" transform="translate(-3.32 -1.29)"/><path class="cls-5" d="M48.6,65.81s-7.6,1.13-9.29,1.41-6.47-.43-9,1.69a6.38,6.38,0,0,0-2.25,6.75c.56,1.83,1.27,6.34,3.24,5.64A34.88,34.88,0,0,1,42.13,79c4.22,0,3.66,1.41,4.08,3.24s.42,5.07,2.82,4.51,7.88-1.41,11.4-3.24,3.38,2.11,4.93,1.41,1-3.38,5.21-3.81,4.78-4.08,6.75-5.35,8.87-5.34,11-7.46,3.52-2.11,3-3.52a7.86,7.86,0,0,0-1.83-2.53s5.77-5.77,6.19-7.88a13.1,13.1,0,0,0,.43-5.07c-.28-1.55-8.87-3.52-10.28-4.08s-4.79,2-4.79,2Z" transform="translate(-3.32 -1.29)"/><path class="cls-6" d="M64,63.7l5.84,2.5,7.71-2.92s-.78-2.19-2.08-2.29S64.69,63.17,64,63.7Z" transform="translate(-3.32 -1.29)"/><path class="cls-7" d="M82.67,70.17l1-6.47-2.82-.57,2.54-2.67-4.23-2.53-4.22,3.23A1.91,1.91,0,0,1,77,62.43c.56,1.55,2.82,6.9,2.54,10.28S82.67,70.46,82.67,70.17Z" transform="translate(-3.32 -1.29)"/><path class="cls-7" d="M81,56.94s7,1.41,9.44,5.63" transform="translate(-3.32 -1.29)"/><path class="cls-7" d="M79.58,72.71s-7.47-5.92-9.15-6.34-7.75-3.09-7.75-3.09L51.42,66.94l5.35,1.4,1.64,3.38,10.75,3H79.72Z" transform="translate(-3.32 -1.29)"/><line class="cls-7" x1="67.1" y1="65.08" x2="73.86" y2="62.27"/><path d="M85.29,45.17a1.21,1.21,0,0,1,.48.09c1.41.56,10,2.53,10.28,4.08a13.1,13.1,0,0,1-.43,5.07c-.42,2.11-6.19,7.88-6.19,7.88a7.86,7.86,0,0,1,1.83,2.53c.56,1.41-.84,1.41-3,3.52s-9,6.2-11,7.46-2.53,4.93-6.75,5.35-3.66,3.1-5.21,3.81A1,1,0,0,1,65,85c-.94,0-1.24-2-2.91-2a3.64,3.64,0,0,0-1.66.49c-3.52,1.83-9,2.67-11.4,3.24a2.52,2.52,0,0,1-.52.06c-1.88,0-1.91-2.88-2.3-4.57S46.35,79,42.13,79A34.88,34.88,0,0,0,31.29,81.3a1.22,1.22,0,0,1-.41.07c-1.66,0-2.31-4-2.83-5.71a6.38,6.38,0,0,1,2.25-6.75c2.54-2.12,7.32-1.41,9-1.69s9.29-1.41,9.29-1.41L81,47.23s2.74-2.06,4.31-2.06m0-1.5c-1.89,0-4.46,1.8-5.13,2.3L48.1,64.37c-1.41.21-7.52,1.11-9,1.37a14.15,14.15,0,0,1-1.65.06c-2.31,0-5.8.06-8.08,2a7.91,7.91,0,0,0-2.72,8.36c.09.29.18.67.29,1.08.61,2.39,1.45,5.68,4,5.68a2.86,2.86,0,0,0,.91-.16,32.25,32.25,0,0,1,10.34-2.17c1.78,0,2.19.28,2.26.33a2.52,2.52,0,0,1,.19.82c0,.27.09.59.17.93s.12.63.18,1c.3,1.77.79,4.74,3.58,4.74a3.79,3.79,0,0,0,.86-.1c.47-.12,1.07-.24,1.76-.38,2.79-.57,7-1.44,10-3a2.25,2.25,0,0,1,1-.32c.18,0,.31.11.71.62A2.81,2.81,0,0,0,65,86.54a2.29,2.29,0,0,0,1-.22,4.06,4.06,0,0,0,1.81-1.88c.52-.89.93-1.59,2.93-1.79,3.45-.35,5-2.49,6.09-4.05a6,6,0,0,1,1.32-1.53l1.6-1c4-2.45,8-5,9.63-6.67a14.88,14.88,0,0,1,1.78-1.47c.92-.67,2.31-1.68,1.51-3.66a8.3,8.3,0,0,0-1.15-1.95c1.93-2,5.2-5.66,5.6-7.62a14.27,14.27,0,0,0,.42-5.63c-.32-1.77-2.69-2.74-9.2-4.6-.88-.26-1.71-.5-2-.61a2.91,2.91,0,0,0-1-.19Z" transform="translate(-3.32 -1.29)"/><path class="cls-2" d="M54.38,22.31S56.63,12.17,64.93,9.78,79,11.89,79.86,13.16s6,9.43,6,17-3,13.66-3.38,13.66,1.13-.28,1.69,3.66-4.64,10-9.29,12.39-14.07,2.69-16.75,4.22c-4.58,2.6-16,3.38-18.59,1.69s-3.23-2-5.77-1.27-10.7,1.83-16.19-1.69S4.82,52.44,4.82,45.4s.85-13.1,5.77-18.16S18.2,19.35,24,18.51s11.26.28,13.79,1.55S54.38,22.31,54.38,22.31Z" transform="translate(-3.32 -1.29)"/><path d="M69.68,9.09c5.71,0,9.5,3.06,10.18,4.07.84,1.26,6,9.43,6,17s-3,13.66-3.38,13.66h-.06c.13,0,1.28.38,1.75,3.66.56,3.94-4.64,10-9.29,12.39S61.33,62.52,59,63.84c-2.58,1.47-8.49,2.65-13.21,2.65-2.48,0-4.63-.33-5.79-1.1s-1.86-1.52-3.25-1.52a8.8,8.8,0,0,0-3,.67,19.75,19.75,0,0,1-6.13.83,19,19,0,0,1-10.06-2.52C12.14,59.33,4.82,52.44,4.82,45.4s.85-13.1,5.77-18.16S18.2,19.35,24,18.51a27.47,27.47,0,0,1,4.09-.3,23.4,23.4,0,0,1,9.7,1.85c2.54,1.26,16.62,2.25,16.62,2.25S56.63,12.17,64.93,9.78a17.1,17.1,0,0,1,4.75-.69m0-1.5a18.51,18.51,0,0,0-5.16.75c-7.31,2.1-10.32,9.41-11.26,12.38-5.67-.43-13.37-1.28-14.83-2a24.81,24.81,0,0,0-10.37-2,30.58,30.58,0,0,0-4.31.31c-6.2.91-9.16,3.95-14,9l-.18.19c-5.14,5.29-6.2,11.5-6.2,19.21,0,7.43,7.27,14.72,13.5,18.72a20.59,20.59,0,0,0,10.87,2.75A21,21,0,0,0,34.34,66a7.66,7.66,0,0,1,2.43-.58c.6,0,.91.19,1.71.77l.7.5c1.35.89,3.58,1.35,6.63,1.35,5,0,11.16-1.25,14-2.85A25,25,0,0,1,65.08,64c3.6-.59,7.69-1.26,10.54-2.73a23.12,23.12,0,0,0,7.09-6c2.25-2.87,3.32-5.68,3-7.91a8.64,8.64,0,0,0-1.22-3.64,21.06,21.06,0,0,0,1.32-3.33,33.7,33.7,0,0,0,1.6-10.14c0-8-5.25-16.28-6.3-17.86S75.87,7.59,69.68,7.59Z" transform="translate(-3.32 -1.29)"/><path class="cls-8" d="M35.61,56.05s1.5,4.32-3.38,4.32-11.64-.19-16-5.82S9.89,41.41,12.14,36.34s7.32-11.26,16-11.83S41.24,26.2,41.61,27s0,3.95-2.63,9S34.85,50,35.61,56.05Z" transform="translate(-3.32 -1.29)"/><path class="cls-8" d="M80,40.05s3.31-1.41,3.59-7-1.41-8.8-3.31-10.91A13.77,13.77,0,0,0,71,17.66c-4.08-.21-7,1.55-6.62,3.24s4.51,6.12,5.7,7.32S78.73,36,80,40.05Z" transform="translate(-3.32 -1.29)"/><path class="cls-9" d="M80.41,11.24S78.81,6.44,79.34,5A4.21,4.21,0,0,1,84.5,3.07c2.13.89,2.84,3.55,3.37,5.86s5,21,5,21l-1.77,2.66c-.71,1.07-3.38-.89-2.67-.53s-1.77.18-2.49-1.83C83.9,24.56,80.41,11.24,80.41,11.24Z" transform="translate(-3.32 -1.29)"/><path class="cls-10" d="M83.66,4.29s1.83-.42,2.53,2.39,5.63,22.81,5.63,22.81L90.7,30.9S84.36,10.81,83.9,9.12,82.53,5.7,83.66,4.29Z" transform="translate(-3.32 -1.29)"/><path d="M83.09,2.79a3.69,3.69,0,0,1,1.41.28c2.13.89,2.84,3.55,3.37,5.86s5,21,5,21l-1.77,2.66c-.31.47-1.2.57-2,.57-.63,0-1.23-.06-1.55-.07a14.23,14.23,0,0,1-1.56-2.86c-2-5.63-5.5-19-5.5-19S78.81,6.44,79.34,5a4.21,4.21,0,0,1,3.75-2.23m4.29,30.26h.09c0,.1.06.16,0,.16a.46.46,0,0,1-.16-.06c-.15-.07-.11-.1.06-.1M83.09,1.29h0a5.68,5.68,0,0,0-5.15,3.2c-.64,1.72.49,5.55,1,7.17.27,1,3.56,13.52,5.53,19a11.83,11.83,0,0,0,1.23,2.43,1.54,1.54,0,0,0,.78,1.29l0,.09h.14a1.74,1.74,0,0,0,.78.2h.85l.06-.1H89c1.06,0,2.56-.13,3.3-1.24l1.77-2.66.36-.54-.15-.64c0-.19-4.44-18.67-5-20.95C88.84,6.47,88,2.91,85.07,1.68a5.1,5.1,0,0,0-2-.39Z" transform="translate(-3.32 -1.29)"/><path class="cls-11" d="M68.17,26.53S76.48,32.44,78.45,37c1.49,3.4,2.25,4.93,2.25,4.93a5.28,5.28,0,0,1,3.1,2.25" transform="translate(-3.32 -1.29)"/><path class="cls-3" d="M38.19,34.7s-5.49-.14-7.32-1.55-2.12-2.82-1-4.08,10.7-10.56,12.25-13S47.06,5,48.46,4.71s3.66.42,6.06,2.68a47.29,47.29,0,0,0,9.85,6.75,65.82,65.82,0,0,0,8.31,2.54c1.55.28,1.55,2.95-.28,4.5A58.94,58.94,0,0,0,68,25.55s-9.15,4.22-14.5,5.63S41.28,34.84,38.19,34.7Z" transform="translate(-3.32 -1.29)"/><path d="M49.09,4.65c1.4,0,3.36.79,5.43,2.74a47.29,47.29,0,0,0,9.85,6.75,65.82,65.82,0,0,0,8.31,2.54c1.55.28,1.55,2.95-.28,4.5A58.94,58.94,0,0,0,68,25.55s-9.15,4.22-14.5,5.63C48.34,32.54,41.7,34.7,38.48,34.7h-.29s-5.49-.14-7.32-1.55-2.12-2.82-1-4.08,10.7-10.56,12.25-13S47.06,5,48.46,4.71a3.21,3.21,0,0,1,.63-.06m0-1.5h0a4.56,4.56,0,0,0-.92.09c-1.42.28-2.43,2-5.16,7.8-.8,1.71-1.63,3.47-2.14,4.26-1,1.58-6.47,7.05-9.4,10-1.37,1.38-2.36,2.38-2.71,2.77a3.69,3.69,0,0,0-1,2.86A5,5,0,0,0,30,34.34c2.11,1.62,7.2,1.83,8.2,1.86h.33c2.64,0,7.13-1.26,11.48-2.48,1.39-.39,2.7-.76,3.95-1.09,5.42-1.43,14.37-5.55,14.75-5.72l.28-.13.21-.23a56.49,56.49,0,0,1,4.21-4.22,5.13,5.13,0,0,0,1.82-5A2.84,2.84,0,0,0,73,15.2a67,67,0,0,1-8-2.45,46.29,46.29,0,0,1-9.39-6.46c-2.15-2-4.44-3.14-6.45-3.14Z" transform="translate(-3.32 -1.29)"/><path d="M42,32.3a72.76,72.76,0,0,0,6.75,4.79c2.12,1.13,8,3.66,13.38,3s8.31-1.55,8.73-2.82a15.38,15.38,0,0,0-.71-8c-1.12-3.1-1.83-4.79-1.83-4.79a19.91,19.91,0,0,0-5.91,0c-4.22.42-9,.7-12.25,2.67S44,30.61,42,32.3Z" transform="translate(-3.32 -1.29)"/><path class="cls-12" d="M48.89,19.16a12.35,12.35,0,0,1-1.83-2.81c-.3-.77,1.4-1,2-1.88a4.88,4.88,0,0,0,1.22-3,1,1,0,0,1,1.87-.61,6,6,0,0,0,3.19,1.83c1.32.37,4-.75,3.85,1.31-.15,1.71-.56,4.84-.84,6.67S56.11,25.45,53.81,24A24,24,0,0,1,48.89,19.16Z" transform="translate(-3.32 -1.29)"/><path class="cls-2" d="M85.49,33.85s-3.1,2.4-2.82,4.93,2.11,5.21,3.1,6.48.7,5.49,2.82,6.05,6.47,1.41,7.74.42,4.22-2.81,5.07-5.07.7-7.74.14-8.87c0-2-1-2.67-2-2.95-.14-3.1.7-3.66-3-4.37S91.82,34,91.82,34,87.88,32.44,85.49,33.85Z" transform="translate(-3.32 -1.29)"/><path d="M95.81,30.39a4.61,4.61,0,0,1,.8.08c3.66.71,2.82,1.27,3,4.37,1,.28,2,1,2,2.95.56,1.13.7,6.62-.14,8.87s-3.8,4.09-5.07,5.07a3.62,3.62,0,0,1-2.1.45,25.2,25.2,0,0,1-5.64-.87c-2.12-.56-1.83-4.79-2.82-6.05s-2.82-3.95-3.1-6.48,2.82-4.93,2.82-4.93A5,5,0,0,1,88,33.26a11.87,11.87,0,0,1,3.8.73s1-3.6,4-3.6m0-1.5h0a5.52,5.52,0,0,0-4.87,3.27,11.7,11.7,0,0,0-2.92-.4,6.41,6.41,0,0,0-3.29.8l-.08,0-.08.06c-.38.29-3.75,3-3.39,6.28.32,2.89,2.27,5.77,3.41,7.23a8,8,0,0,1,.48,1.71c.39,1.81.92,4.28,3.13,4.87a26.11,26.11,0,0,0,6,.92,4.83,4.83,0,0,0,3-.76c.2-.16.44-.33.71-.53,1.58-1.15,4-2.9,4.84-5.2.77-2,1-7.53.23-9.7a4.17,4.17,0,0,0-2-3.64v-.47c0-2.68-.55-3.69-4.16-4.38a5.74,5.74,0,0,0-1.08-.11Z" transform="translate(-3.32 -1.29)"/><polygon class="cls-13" points="55.09 70.43 55.28 65.17 59.59 67.9 63.54 66.11 63.63 70.99 68.61 74.47 64.48 76.53 64.1 80.94 59.97 78.6 54.9 80.57 55 75.87 50.21 73.53 55.09 70.43"/><path d="M58.6,66.47l4.32,2.72,3.94-1.79L67,72.29l5,3.47L67.8,77.82l-.38,4.41-4.13-2.34-5.07,2,.1-4.69-4.79-2.35,4.88-3.1.19-5.25m0-1a1,1,0,0,0-.47.11,1,1,0,0,0-.53.85l-.17,4.73L53,74a1,1,0,0,0,.09,1.75l4.22,2.06-.09,4.06a1,1,0,0,0,.43.84,1,1,0,0,0,.57.18.94.94,0,0,0,.37-.07L63.21,81l3.72,2.11a1,1,0,0,0,.49.13,1,1,0,0,0,.47-.11,1,1,0,0,0,.53-.8l.33-3.85,3.62-1.82a1,1,0,0,0,.13-1.71l-4.56-3.18-.08-4.37a1,1,0,0,0-.47-.83,1,1,0,0,0-.53-.16,1,1,0,0,0-.41.09L63,68.06l-3.86-2.44a1,1,0,0,0-.53-.15Z" transform="translate(-3.32 -1.29)"/><path class="cls-13" d="M84.78,73.41c-.56-.66-1.5-2.44-3.19-.84l-7.13,6.75s-.66.38-.09,1.51,4.31,5,4.31,5A1.41,1.41,0,0,0,81,86c1.31-1.41,6.48-6.76,6.48-6.76a1.7,1.7,0,0,0,0-2.44C86.31,75.19,85.35,74.07,84.78,73.41Z" transform="translate(-3.32 -1.29)"/><path d="M82.9,71.92c.9,0,1.49,1,1.88,1.49.57.66,1.53,1.78,2.73,3.38a1.7,1.7,0,0,1,0,2.44S82.34,84.58,81,86a1.53,1.53,0,0,1-1.11.58,1.72,1.72,0,0,1-1.24-.77s-3.75-3.85-4.31-5,.09-1.51.09-1.51l7.13-6.75a2,2,0,0,1,1.31-.65m0-1a2.9,2.9,0,0,0-2,.92l-7.08,6.71a2,2,0,0,0-.36,2.72c.59,1.18,3.69,4.39,4.44,5.17a2.65,2.65,0,0,0,2,1.13,2.5,2.5,0,0,0,1.84-.9c1.24-1.33,6-6.27,6.44-6.71a2.73,2.73,0,0,0,.11-3.77c-1.24-1.65-2.23-2.81-2.77-3.43l-.19-.25a3.26,3.26,0,0,0-2.45-1.59Z" transform="translate(-3.32 -1.29)"/><path d="M63.19,49.68a5.71,5.71,0,0,1-.5,2.09A2.39,2.39,0,0,1,61,53.26a5.47,5.47,0,0,1-4.24-1.14,7.56,7.56,0,0,1-2.37-3.74,26.63,26.63,0,0,1-1-4.21,13.29,13.29,0,0,1-.07-4.41,2.87,2.87,0,0,1,.5-1.16,4.21,4.21,0,0,1,.9-.8A5.18,5.18,0,0,1,56.89,37a3.09,3.09,0,0,1,3.58,2.31,14.75,14.75,0,0,1,1,4.18,16.65,16.65,0,0,0-1.4-4A2.94,2.94,0,0,0,58.84,38,2.67,2.67,0,0,0,57,37.77a5,5,0,0,0-1.78.76,3.12,3.12,0,0,0-.67.63,1.94,1.94,0,0,0-.29.8A12.67,12.67,0,0,0,54.39,44a28.57,28.57,0,0,0,.94,4.07,7.17,7.17,0,0,0,2,3.44A4.89,4.89,0,0,0,61,52.77a2,2,0,0,0,1.49-1.12A6.76,6.76,0,0,0,63.19,49.68Z" transform="translate(-3.32 -1.29)"/><path d="M68.14,48.09a5.39,5.39,0,0,0,3.46,1,3.71,3.71,0,0,0,1.65-.49,2.65,2.65,0,0,0,1-1.35,8,8,0,0,0,.22-3.53A6.8,6.8,0,0,0,74,42.05a13.09,13.09,0,0,0-.85-1.6A11.81,11.81,0,0,0,71,37.57a3.37,3.37,0,0,0-1.41-.83,2.46,2.46,0,0,0-1.56.2,4.36,4.36,0,0,0-2.12,2.68,12.91,12.91,0,0,0-.22,3.7c-.1-.62-.2-1.25-.28-1.87a5.33,5.33,0,0,1,0-2,5,5,0,0,1,2.24-3.24,3.09,3.09,0,0,1,2.1-.38,4.23,4.23,0,0,1,1.85,1A12.75,12.75,0,0,1,74,39.94a15.91,15.91,0,0,1,.89,1.75,7.62,7.62,0,0,1,.45,2,8.1,8.1,0,0,1-.45,3.92,3.27,3.27,0,0,1-1.32,1.6,4.15,4.15,0,0,1-2,.45A5.24,5.24,0,0,1,68.14,48.09Z" transform="translate(-3.32 -1.29)"/><ellipse cx="68.27" cy="44.86" rx="1.56" ry="3.25" transform="translate(-12.19 16.68) rotate(-14.09)"/><ellipse class="cls-2" cx="67.44" cy="44.5" rx="0.78" ry="1.22" transform="translate(-11.88 15.77) rotate(-13.57)"/><ellipse cx="61.68" cy="46.9" rx="1.56" ry="3.25" transform="translate(-12.88 15.14) rotate(-14.09)"/><ellipse class="cls-2" cx="60.89" cy="46.35" rx="0.78" ry="1.22" transform="translate(-14.38 19) rotate(-17.37)"/><path d="M56.35,54.27a15,15,0,0,0,5.13,2.39,28.16,28.16,0,0,0,5.62.65,10,10,0,0,0,5.25-1.2,13.29,13.29,0,0,0,2.27-1.63,8.55,8.55,0,0,0,1.86-2.19A6.69,6.69,0,0,1,75.17,55,10.69,10.69,0,0,1,73,57.09a9.21,9.21,0,0,1-2.82,1.36,12.38,12.38,0,0,1-3.07.36,19.68,19.68,0,0,1-5.92-1,8.44,8.44,0,0,1-2.7-1.43A12.66,12.66,0,0,1,56.35,54.27Z" transform="translate(-3.32 -1.29)"/><path class="cls-12" d="M65.87,58.07s-.31,4.76.14,5.06c.85.57,4,0,5-.32S72,60.88,72,60a13.23,13.23,0,0,0-.51-2.58A11.18,11.18,0,0,1,65.87,58.07Z" transform="translate(-3.32 -1.29)"/><ellipse class="cls-8" cx="69.05" cy="50.68" rx="2.99" ry="2.11" transform="translate(-14.75 20.08) rotate(-16.27)"/><ellipse class="cls-2" cx="69.52" cy="49.83" rx="0.9" ry="0.58" transform="translate(-13.07 16.4) rotate(-13.56)"/><path d="M54.94,54.83a2.29,2.29,0,0,0,1.42-.59,2.15,2.15,0,0,0,.34-.66,3.49,3.49,0,0,0,.21-.86,1.27,1.27,0,0,1,.37,1,1.6,1.6,0,0,1-.34,1,1.36,1.36,0,0,1-1,.48A1.48,1.48,0,0,1,54.94,54.83Z" transform="translate(-3.32 -1.29)"/><path d="M91.43,33.53a18,18,0,0,0,1.36,2,8,8,0,0,0,1.36,1.36c.13.09.24.2.37.3l.41.26a1.84,1.84,0,0,0,.49.31,3.21,3.21,0,0,0,2-.42l0,0a.06.06,0,0,1,.08,0,.06.06,0,0,1,0,.06,2.94,2.94,0,0,1-2,1.54,2.22,2.22,0,0,1-1.29-.22,6.19,6.19,0,0,1-1.09-.68,5.47,5.47,0,0,1-1.92-4.55.06.06,0,0,1,.07-.06.05.05,0,0,1,.05,0Z" transform="translate(-3.32 -1.29)"/><path d="M97.09,43.62a5.08,5.08,0,0,1-2.43.74,3.85,3.85,0,0,1-1.4-.16A2.34,2.34,0,0,1,91.87,43a3,3,0,0,1-.14-.49c0-.16,0-.25,0-.38a3.34,3.34,0,0,1,.51-2.11,2.75,2.75,0,0,1,2.32-1.32h0a.05.05,0,0,1,0,.05.05.05,0,0,1,0,0,3.2,3.2,0,0,0-1.64,1.56,3.24,3.24,0,0,0-.14,2.23,2.32,2.32,0,0,0,2,1,10.17,10.17,0,0,0,2.34-.06s.05,0,.06,0a.05.05,0,0,1,0,0Z" transform="translate(-3.32 -1.29)"/><path d="M92.39,40.84a4.41,4.41,0,0,1-1.55.89,3.08,3.08,0,0,1-1,.16,2.27,2.27,0,0,1-1-.26.24.24,0,0,0,.23,0,.27.27,0,0,0,.16-.13s0,0,0,.07a2.63,2.63,0,0,0,0,.36,7.69,7.69,0,0,0,.21.79,10.57,10.57,0,0,0,.65,1.55,5.79,5.79,0,0,0,.94,1.33,7.48,7.48,0,0,0,1.3,1.07,11.49,11.49,0,0,0,3.17,1.47,8,8,0,0,1-3.52-.86,7.31,7.31,0,0,1-1.56-1,5.36,5.36,0,0,1-1.19-1.5A7.49,7.49,0,0,1,88.61,43a5.92,5.92,0,0,1-.19-.95,4.38,4.38,0,0,1,0-.52,1.08,1.08,0,0,1,.09-.37.56.56,0,0,1,.3-.3.5.5,0,0,1,.44,0C90.06,41.53,91.36,41.17,92.39,40.84Z" transform="translate(-3.32 -1.29)"/><path d="M94.75,44.27A3.47,3.47,0,0,0,94,45.7a1.52,1.52,0,0,0,0,.53c.06.19.12.46.2.64a2,2,0,0,0,.23.42.93.93,0,0,0,.37.32c.39.2,1,.32,1.66.6h0a0,0,0,0,1,0,.06s0,0,0,0a5.6,5.6,0,0,1-1.83.09,1.77,1.77,0,0,1-1.37-1.19,2.4,2.4,0,0,1,0-1.84,2.72,2.72,0,0,1,1.38-1.19,0,0,0,0,1,.06,0,0,0,0,0,1,0,0Z" transform="translate(-3.32 -1.29)"/><path d="M14,71.07a5.91,5.91,0,0,1,2.11.4,7.73,7.73,0,0,1,1.88,1,6.33,6.33,0,0,1,1.58,1.48,3.38,3.38,0,0,1,.81,2,15.8,15.8,0,0,0-1.62-1.21l-1.61-1.08A17.73,17.73,0,0,1,14,71.07Z" transform="translate(-3.32 -1.29)"/><path d="M18.15,67.5a3.7,3.7,0,0,1,1.9.11,5,5,0,0,1,1.69.86A4.4,4.4,0,0,1,23,69.93a3.27,3.27,0,0,1,.41,1.89c-.52-.43-.9-.82-1.33-1.17s-.82-.68-1.25-1C20,69,19.11,68.38,18.15,67.5Z" transform="translate(-3.32 -1.29)"/><path d="M103.37,66.18a21.23,21.23,0,0,1,5.44-8.07c3.94-3.56,10-5.63,13.52-1.87S117.07,79.32,115,82.89s-5.45,9.76-8.08,9.39-7.5-1.88-7.5-9.39C99.43,77.07,103.37,66.18,103.37,66.18Z" transform="translate(-3.32 -1.29)"/><path class="cls-14" d="M120.64,56.24c-4.7,0-7.14,3.38-8.83,6.19a89.67,89.67,0,0,0-6.94,15.77c-1.07,3.81-1.31,9.57-.19,11.45s2.25,2.25,3.76,1.12,3.37-2.81,6-7.5a113.76,113.76,0,0,0,7.14-16.9c.93-3,1.68-5.63,1.31-7.51C122.48,56.81,121.2,56.24,120.64,56.24Z" transform="translate(-3.32 -1.29)"/><path class="cls-15" d="M34.1,114.05s-.75,3.57.75,3.75,3.38-.75,3.38-2.25-.37-.19-1.69-.75S35.42,112.74,34.1,114.05Z" transform="translate(-3.32 -1.29)"/><g class="cls-16"><path class="cls-17" d="M80.49,82.91l4.86-4.64s.42-.07.35-.85-2.11-2.81-2.46-2.88a1.7,1.7,0,0,0-1.41.49c-.64.49-4.51,4.58-4.51,4.58Z" transform="translate(-3.32 -1.29)"/><rect class="cls-18" x="80.78" y="75.06" width="2.11" height="6.89" rx="0.89" transform="translate(76.16 -36.17) rotate(45)"/><rect class="cls-18" x="77.7" y="78.3" width="2.53" height="6.21" rx="0.89" transform="translate(188.82 87.26) rotate(137.75)"/></g><path class="cls-19" d="M82.59,73.19c.74,0,1.22.84,1.55,1.22.46.54,1.25,1.47,2.23,2.78a1.38,1.38,0,0,1,0,2s-4.23,4.38-5.31,5.54a1.26,1.26,0,0,1-.91.47,1.41,1.41,0,0,1-1-.63,36.45,36.45,0,0,1-3.54-4.08c-.46-.92.07-1.23.07-1.23l5.85-5.54a1.62,1.62,0,0,1,1.07-.53m0-.5a2.1,2.1,0,0,0-1.41.67l-5.82,5.51c-.32.23-.71.85-.21,1.85a34,34,0,0,0,3.6,4.17,1.84,1.84,0,0,0,1.4.81,1.75,1.75,0,0,0,1.28-.63c1-1.1,5-5.22,5.29-5.52a1.88,1.88,0,0,0,0-2.66c-1-1.35-1.82-2.29-2.25-2.8l-.17-.22a2.36,2.36,0,0,0-1.76-1.18Z" transform="translate(-3.32 -1.29)"/><path class="cls-20" d="M84.55,76.88,80.47,81l1.08,1.55s.14.52-.57,1.08-.75.61-1,.56" transform="translate(-3.32 -1.29)"/><path class="cls-21" d="M54.85,86.46s-3.85-.57-5,.28-.56,4,.1,5.35,3.75,3.28,5.06,3.28,2.72-.18,2.91-.75a7.63,7.63,0,0,0,.19-1.22c0,.38.47.85.94,1.13s4.41,0,5.25-.85,2.73-2.81,2.63-3.75a12.63,12.63,0,0,0-1.59-4.51c-.94-1.31-1.22-2.62-2.26-2.53s-4,.38-5.63,2S54.85,86.46,54.85,86.46Z" transform="translate(-3.32 -1.29)"/><path class="cls-7" d="M54.85,86.46s-3.85-.57-5,.28-.56,4,.1,5.35,3.75,3.28,5.06,3.28,2.72-.18,2.91-.75a7.63,7.63,0,0,0,.19-1.22c0,.38.47.85.94,1.13s4.41,0,5.25-.85,2.73-2.81,2.63-3.75a12.63,12.63,0,0,0-1.59-4.51c-.94-1.31-1.22-2.62-2.26-2.53s-4,.38-5.63,2S54.85,86.46,54.85,86.46Z" transform="translate(-3.32 -1.29)"/><path d="M50.62,92.75c.61,0,1.22.1,1.83.12a5.42,5.42,0,0,0,1.74-.18c.13-.07.16-.07.24-.19a1.53,1.53,0,0,0,.16-.34,3.69,3.69,0,0,0,.13-.83,11.9,11.9,0,0,0-.08-1.78c-.06-.61-.17-1.2-.18-1.87,0-.09,0-.18,0-.29a.68.68,0,0,1,.29-.51.52.52,0,0,1,.3-.08.58.58,0,0,1,.22,0,.76.76,0,0,1,.24.18,1.51,1.51,0,0,1,.19.26c.18.31.3.59.43.87a17.08,17.08,0,0,0,1.6,3.14,1.59,1.59,0,0,0,1.28.49,6.21,6.21,0,0,0,1.68-.22A10.2,10.2,0,0,0,62.38,91a1.74,1.74,0,0,0,.9-1.12,10.17,10.17,0,0,0,.4-1.73l.17-.91a4.11,4.11,0,0,0,.07-.86,11.06,11.06,0,0,0-.82-3.51,9.75,9.75,0,0,1,1.3,3.48,3.57,3.57,0,0,1,0,1l-.1.9A10.46,10.46,0,0,1,64,90.13a2.45,2.45,0,0,1-1.27,1.69,12.4,12.4,0,0,1-1.79.67,6.91,6.91,0,0,1-2,.28,2.57,2.57,0,0,1-2-.83,15.07,15.07,0,0,1-1.7-3.41,8.46,8.46,0,0,0-.35-.79l-.07-.12s0,0,.06,0a.27.27,0,0,0,.11,0,.38.38,0,0,0,.19-.05c.2-.17.1-.15.11-.1s0,.1,0,.17c0,.55,0,1.18.06,1.8a13.22,13.22,0,0,1-.06,1.88,4.24,4.24,0,0,1-.22,1,1.79,1.79,0,0,1-.27.46.8.8,0,0,1-.5.33,5.09,5.09,0,0,1-1.91,0A13.82,13.82,0,0,1,50.62,92.75Z" transform="translate(-3.32 -1.29)"/><circle class="cls-22" cx="56.78" cy="86.85" r="1.6"/><circle class="cls-22" cx="48.76" cy="89.34" r="1.27"/><path d="M60.1,86.55a1.6,1.6,0,1,1,0,3.19,1.6,1.6,0,0,1,0-3.19m0-1a2.6,2.6,0,1,0,2.6,2.6,2.6,2.6,0,0,0-2.6-2.6Z" transform="translate(-3.32 -1.29)"/><path d="M52.08,89.37a1.27,1.27,0,0,1,0,2.53,1.27,1.27,0,1,1,0-2.53m0-1a2.27,2.27,0,1,0,2.26,2.26,2.27,2.27,0,0,0-2.26-2.26Z" transform="translate(-3.32 -1.29)"/><polygon class="cls-23" points="56.22 68.18 56.78 72.45 54.76 74.19 57.72 75.17 56.59 78.69 59.78 76.3 61.9 77.75 62.08 75.83 64.71 75.03 61.75 73.9 61.85 69.77 58.84 70.9 56.22 68.18"/><polyline class="cls-24" points="55.49 65.75 59.01 72.37 63.2 66.95"/><polyline class="cls-24" points="67.17 74.3 59.47 73.07 63.34 79.51"/><polyline class="cls-24" points="52.04 73.21 58.66 73.11 55.77 79.16"/></g></g></svg>