<?xml version="1.0" encoding="utf-8"?>
<!-- Generator: Adobe Illustrator 24.1.0, SVG Export Plug-In . SVG Version: 6.00 Build 0)  -->
<svg version="1.1" id="Layer_1" xmlns="http://www.w3.org/2000/svg" xmlns:xlink="http://www.w3.org/1999/xlink" x="0px" y="0px"
	 viewBox="0 0 48 48" style="enable-background:new 0 0 48 48;" xml:space="preserve">
<style type="text/css">
	.st0{fill:#777777;}
	.st1{fill:none;stroke:#444444;stroke-width:1.0592;stroke-miterlimit:10;}
	.st2{fill:#FFFFFF;}
</style>
<g>
	<path class="st0" d="M49.9,45.5c0,1.7-1.2,2.4-2.7,1.7L4,25.4c-1.5-0.8-1.5-2,0-2.8L47.2,0.9c1.5-0.8,2.7,0,2.7,1.7
		C49.9,2.5,49.9,45.5,49.9,45.5z"/>
	<path class="st1" d="M49.9,45.5c0,1.7-1.2,2.4-2.7,1.7L4,25.4c-1.5-0.8-1.5-2,0-2.8L47.2,0.9c1.5-0.8,2.7,0,2.7,1.7
		C49.9,2.5,49.9,45.5,49.9,45.5z"/>
</g>
<rect x="48" y="-1.1" class="st2" width="3.6" height="50.1"/>
</svg>
